<svg width="14" height="14" viewBox="0 0 14 14" fill="none" xmlns="http://www.w3.org/2000/svg">
<rect width="14" height="14" fill="#DCDCDC"/>
<g id="2. Pop Up_Dark Version">
<g clip-path="url(#clip0_0_1)">
<rect x="-893" y="-232" width="1194" height="834" rx="16" fill="#252836"/>
<g id="Column 2">
<rect x="-108" y="-232" width="409" height="834" rx="8" fill="#1F1D2B"/>
<g id="Content">
<g id="Content_2" clip-path="url(#clip1_0_1)">
<g id="Content_3">
<g id="Content / Items">
<g id="Name">
<g id="Items">
<g id="Item">
<g id="Frame 61">
</g>
</g>
</g>
</g>
</g>
</g>
</g>
</g>
</g>
<g id="Content_4">
<rect id="Overlay" x="-893" y="-232" width="1194" height="834" fill="black" fill-opacity="0.7"/>
<g id="Pop Up">
<path id="Background" d="M-513 -216C-513 -224.837 -505.837 -232 -497 -232H285C293.837 -232 301 -224.837 301 -216V602H-497C-505.837 602 -513 594.837 -513 586V-216Z" fill="#1F1D2B"/>
<g id="Payment Content">
<g id="Payment Method">
<g id="Tabs">
<g id="Content_5">
<rect x="-79.5" y="-6.5" width="100" height="63" rx="7.5" fill="#252836"/>
<g id="Icon/Fill/checkmark-circle">
<path id="Mask" fill-rule="evenodd" clip-rule="evenodd" d="M9.8635 5.40362L6.81816 9.40362C6.69283 9.56828 6.49883 9.66562 6.29216 9.66695H6.2875C6.08283 9.66695 5.8895 9.57228 5.76283 9.41095L4.1415 7.33962C3.91483 7.05028 3.9655 6.63095 4.2555 6.40428C4.54483 6.17695 4.96483 6.22762 5.1915 6.51828L6.28016 7.90895L8.80283 4.59628C9.0255 4.30362 9.4435 4.24628 9.7375 4.46962C10.0302 4.69295 10.0868 5.11095 9.8635 5.40362ZM7.00016 0.333618C3.31816 0.333618 0.333496 3.31828 0.333496 7.00028C0.333496 10.6816 3.31816 13.667 7.00016 13.667C10.6822 13.667 13.6668 10.6816 13.6668 7.00028C13.6668 3.31828 10.6822 0.333618 7.00016 0.333618Z" fill="#EA7C69"/>
<mask id="mask0_0_1" style="mask-type:luminance" maskUnits="userSpaceOnUse" x="0" y="0" width="14" height="14">
<path id="Mask_2" fill-rule="evenodd" clip-rule="evenodd" d="M9.8635 5.40362L6.81816 9.40362C6.69283 9.56828 6.49883 9.66562 6.29216 9.66695H6.2875C6.08283 9.66695 5.8895 9.57228 5.76283 9.41095L4.1415 7.33962C3.91483 7.05028 3.9655 6.63095 4.2555 6.40428C4.54483 6.17695 4.96483 6.22762 5.1915 6.51828L6.28016 7.90895L8.80283 4.59628C9.0255 4.30362 9.4435 4.24628 9.7375 4.46962C10.0302 4.69295 10.0868 5.11095 9.8635 5.40362ZM7.00016 0.333618C3.31816 0.333618 0.333496 3.31828 0.333496 7.00028C0.333496 10.6816 3.31816 13.667 7.00016 13.667C10.6822 13.667 13.6668 10.6816 13.6668 7.00028C13.6668 3.31828 10.6822 0.333618 7.00016 0.333618Z" fill="white"/>
</mask>
<g mask="url(#mask0_0_1)">
<g id="&#240;&#159;&#142;&#168; Color">
<rect id="Base" x="-1" y="-1" width="16" height="16" fill="#EA7C69"/>
</g>
</g>
</g>
<rect x="-79.5" y="-6.5" width="100" height="63" rx="7.5" stroke="#ABBBC2"/>
</g>
</g>
</g>
</g>
</g>
</g>
</g>
</g>
<defs>
<clipPath id="clip0_0_1">
<rect x="-893" y="-232" width="1194" height="834" rx="16" fill="white"/>
</clipPath>
<clipPath id="clip1_0_1">
<rect width="361" height="454" fill="white" transform="translate(-84 -52)"/>
</clipPath>
</defs>
</svg>
